<svg fill="#4497e2" viewBox="0 0 100 100" xmlns="http://www.w3.org/2000/svg"><path d="m98.8 18.7c.7 0 1.2-.5 1.2-1.2v-16.3c0-.7-.5-1.2-1.2-1.2h-73.2c-.7 0-1.2.5-1.2 1.2v15h-23.2c-.7 0-1.2.5-1.2 1.2v32.6c0 .7.5 1.2 1.2 1.2h11v13.8h-11c-.7 0-1.2.6-1.2 1.3v16.3c0 .7.5 1.2 1.2 1.2h23.2v15c0 .7.5 1.2 1.2 1.2h48.8c.7 0 1.2-.5 1.2-1.2v-15h23.2c.7 0 1.2-.5 1.2-1.2v-16.3c0-.7-.5-1.2-1.2-1.2h-11v-13.9h11c.7 0 1.2-.5 1.2-1.2v-16.3c0-.7-.5-1.2-1.2-1.2h-23.2v-13.8zm-1.2-2.4h-46.4v-13.9h46.3v13.9zm-24.4 32.5h-46.4v-13.8h46.4zm-46.4-46.4h22v13.8h-22zm-24.4 16.3h46.4v13.8h-46.4zm0 16.3h22v13.8h-22zm12.2 16.2h22v13.8h-22zm-12.2 16.3h46.4v13.8h-46.4zm70.8 30.1h-46.4v-13.9h46.4zm24.4-16.3h-46.4v-13.8h46.4zm-12.2-16.3h-46.4v-13.8h46.4zm12.2-16.2h-22v-13.8h22zm-24.4-16.3h-22v-13.8h22z"/></svg>