<svg xmlns="http://www.w3.org/2000/svg" fill="#4497e2" viewBox="0 0 64 64"><path d="M15 31H0v31h4v2h2v-2h25v2h2v-2h26v2h2v-2h3V31zm0 2v5H2v-5zM2 60V40h13v20zm15 0V33h30v27zm32 0V40h13v20zm13-27v5H49v-5z"/><path d="M11 44h2v5h-2zm40 0h2v5h-2zM20 57h24V40H20zm2-15h20v13H22zm-2-7h24v2H20zm2-35H0v17h22zM2 2h8v13H2zm18 13h-8V2h8zm22 2h22V0H42zm20-2h-8V2h8zM44 2h8v13h-8z"/><path d="M25 0v15.7L22.5 19H18v2h28v-2h-4.5L39 15.7V0zm2 2h10v13H27zm-2 17l1.5-2h11l1.5 2zM6 5h2v5H6zm10 0h2v5h-2zm31 0h2v5h-2zm10 0h2v5h-2zM27 44h11v2H27z"/></svg>