<svg viewBox="0 0 96 120" xmlns="http://www.w3.org/2000/svg"><path d="m42.76 90.54c-.044 0-.088 0-.14-.008-10.292-.712-18.796-4.892-25.276-12.428-10.564-12.3-15.208-33.024-13.088-58.352.088-1.084.964-1.98 2.108-1.828 14.24.832 29.844 9.136 40.728 21.672 9.908 11.404 14.772 24.756 13.716 37.616-.092 1.092-1.016 1.884-2.16 1.828a2.01 2.01 0 0 1 -1.832-2.156c.968-11.772-3.56-24.084-12.748-34.668-9.696-11.172-23.316-18.752-35.984-20.136-1.596 23.028 2.84 42.42 12.284 53.42 5.752 6.696 13.332 10.416 22.516 11.04a2.009 2.009 0 0 1 1.86 2.132 1.98 1.98 0 0 1 -1.984 1.868z"/><path d="m53.244 94.084c-.916 0-1.74-.632-1.948-1.564-4.824-21.476-27.864-49.4-37.632-58.832a1.997 1.997 0 0 1 -.056-2.824 2.013 2.013 0 0 1 2.828-.056c10.04 9.708 33.736 38.48 38.756 60.832a2.015 2.015 0 0 1 -1.512 2.4 2.016 2.016 0 0 1 -.436.044zm5.768-21.216a2.002 2.002 0 0 1 -.408-3.96c30.128-6.304 30.332-47.364 29.296-62.828-17.4 1.888-35.544 15.224-43.732 32.384a2.004 2.004 0 0 1 -2.668.944 1.998 1.998 0 0 1 -.944-2.664c9.084-19.044 29.72-33.688 49.068-34.82 1.064-.104 2.024.752 2.108 1.828 3.216 38.344-8.864 64.164-32.312 69.076-.14.024-.272.04-.408.04z"/><path d="m53.24 54.172a1.96 1.96 0 0 1 -1.008-.272 2.006 2.006 0 0 1 -.712-2.744c9.2-15.7 21.884-30.428 28.168-36.508.8-.756 2.064-.748 2.828.056a2.002 2.002 0 0 1 -.048 2.828c-6.124 5.916-18.5 20.296-27.5 35.66-.376.62-1.044.98-1.728.98z"/><g font-family="'Helvetica Neue', Helvetica, Arial-Unicode, Arial, Sans-serif" font-size="5" font-weight="bold"><text y="111">Created by iconsmind.com</text><text y="116">from the Noun Project</text></g></svg>