<svg fill="#4497e2" viewBox="0 0 64 64" xmlns="http://www.w3.org/2000/svg"><path d="m15 31h-15v31h4v2h2v-2h25v2h2v-2h26v2h2v-2h3v-31zm0 2v5h-13v-5zm-13 27v-20h13v20zm15 0v-27h30v27zm32 0v-20h13v20zm13-27v5h-13v-5z"/><path d="m11 44h2v5h-2zm40 0h2v5h-2zm-31 13h24v-17h-24zm2-15h20v13h-20zm-2-7h24v2h-24zm2-35h-22v17h22zm-20 2h8v13h-8zm18 13h-8v-13h8zm22 2h22v-17h-22zm20-2h-8v-13h8zm-18-13h8v13h-8z"/><path d="m25 0v15.7l-2.5 3.3h-4.5v2h28v-2h-4.5l-2.5-3.3v-15.7zm2 2h10v13h-10zm-2 17 1.5-2h11l1.5 2zm-19-14h2v5h-2zm10 0h2v5h-2zm31 0h2v5h-2zm10 0h2v5h-2zm-30 39h11v2h-11z"/></svg>