<svg viewBox="0 0 100 125" xmlns="http://www.w3.org/2000/svg"><path d="m90 91h-80c-.6 0-1-.4-1-1v-7c0-.6.4-1 1-1h80c.6 0 1 .4 1 1v7c0 .6-.4 1-1 1zm-79-2h78v-5h-78z"/><path d="m88 84h-76c-.6 0-1-.4-1-1v-73c0-.6.4-1 1-1h76c.6 0 1 .4 1 1v73c0 .6-.4 1-1 1zm-75-2h74v-71h-74z"/><path d="m47 79h-30c-.6 0-1-.4-1-1v-63c0-.6.4-1 1-1h30c.6 0 1 .4 1 1v29c0 .6-.4 1-1 1s-1-.4-1-1v-28h-28v61h28v-27c0-.6.4-1 1-1s1 .4 1 1v28c0 .6-.4 1-1 1zm36 0h-30c-.6 0-1-.4-1-1v-63c0-.6.4-1 1-1h30c.6 0 1 .4 1 1v63c0 .6-.4 1-1 1zm-29-2h28v-61h-28z"/><path d="m20.5 28.5c-.6 0-1-.4-1-1 0-.3.1-.5.3-.7l7.4-7.4c.4-.4 1.1-.3 1.4.1s.3.9 0 1.3l-7.4 7.4c-.2.2-.4.3-.7.3zm.7 8.2c-.6 0-1-.5-1-1 0-.2.1-.5.3-.6l15.7-15.7c.4-.4 1.1-.3 1.4.1s.3.9 0 1.3l-15.7 15.6c-.2.2-.5.3-.7.3zm37-8.2c-.6 0-1-.4-1-1 0-.3.1-.5.3-.7l7.4-7.4c.4-.4 1.1-.3 1.4.1s.3.9 0 1.3l-7.4 7.4c-.2.2-.5.3-.7.3zm.6 8.2c-.6 0-1-.5-1-1 0-.2.1-.5.3-.6l15.7-15.7c.4-.4 1.1-.3 1.4.1s.3.9 0 1.3l-15.7 15.6c-.1.2-.4.3-.7.3z"/><g fill="#0d8ee1"><path d="m197.5 91h-80c-.6 0-1-.4-1-1v-7c0-.6.4-1 1-1h80c.6 0 1 .4 1 1v7c0 .6-.4 1-1 1zm-79-2h78v-5h-78z"/><path d="m195.5 84h-76c-.6 0-1-.4-1-1v-73c0-.6.4-1 1-1h76c.6 0 1 .4 1 1v73c0 .6-.4 1-1 1zm-75-2h74v-71h-74z"/><path d="m154.5 14h-30c-.6 0-1 .4-1 1v63c0 .6.4 1 1 1h30c.6 0 1-.4 1-1v-63c0-.6-.4-1-1-1zm-1 63h-28v-61h28zm37 2h-30c-.6 0-1-.4-1-1v-63c0-.6.4-1 1-1h30c.6 0 1 .4 1 1v63c0 .6-.4 1-1 1zm-29-2h28v-61h-28z"/><path d="m128 28.5c-.6 0-1-.4-1-1 0-.3.1-.5.3-.7l7.4-7.4c.4-.4 1.1-.3 1.4.1s.3.9 0 1.3l-7.4 7.4c-.1.2-.4.3-.7.3zm.7 8.2c-.6 0-1-.5-1-1 0-.2.1-.5.3-.6l15.7-15.7c.4-.4 1.1-.3 1.4.1s.3.9 0 1.3l-15.7 15.7c-.2.1-.4.2-.7.2zm37-8.2c-.6 0-1-.4-1-1 0-.3.1-.5.3-.7l7.4-7.4c.4-.4 1.1-.3 1.4.1s.3.9 0 1.3l-7.4 7.4c-.2.2-.4.3-.7.3zm.7 8.2c-.6 0-1-.5-1-1 0-.2.1-.5.3-.6l15.7-15.7c.4-.4 1.1-.3 1.4.1s.3.9 0 1.3l-15.7 15.7c-.2.1-.5.2-.7.2z"/></g></svg>