<svg enable-background="new 0 0 473.375 473.375" fill="#509ee4" viewBox="0 0 473.375 473.375" xmlns="http://www.w3.org/2000/svg"><path d="m361.375 253.371h-32c-4.418 0-8 3.582-8 8h-36.688l-51.312-51.312v-76.688c0-2.122-.844-4.156-2.344-5.656l-96-96-12.688-12.68c-9.372-9.373-24.568-9.375-33.941-.003-.001.001-.002.002-.003.003l-81.368 81.368c-9.373 9.372-9.375 24.568-.003 33.941.001.001.002.002.003.003l12.688 12.68 96 96c1.5 1.5 3.534 2.344 5.656 2.344h76.688l16 16h-60.688c-4.418 0-8 3.582-8 8v168c0 13.255 10.745 24 24 24h16c13.255 0 24-10.745 24-24v-112h32v32c.026 22.08 17.92 39.974 40 40 4.418 0 8-3.582 8-8v-64h32c0 4.418 3.582 8 8 8h32c4.418 0 8-3.582 8-8v-64c0-4.418-3.582-8-8-8zm-343.032-130.336c-3.126-3.122-3.129-8.188-.006-11.314.002-.002.004-.004.006-.006l81.368-81.368c3.122-3.126 8.188-3.129 11.314-.006.002.002.004.004.006.006l7.024 7.024-92.68 92.688zm106.344 106.336-88-88 92.688-92.688 88 88v73.376l-19.312 19.312zm196.688 80h-40c-4.418 0-8 3.582-8 8v62.632c-9.582-3.403-15.988-12.464-16-22.632v-40c0-4.418-3.582-8-8-8h-48c-4.418 0-8 3.582-8 8v120c0 4.418-3.582 8-8 8h-16c-4.418 0-8-3.582-8-8v-160h72c4.418-.001 7.999-3.583 7.998-8.002 0-2.121-.843-4.154-2.342-5.654l-26.344-26.344 12.688-12.688 50.344 50.344c1.5 1.5 3.534 2.344 5.656 2.344h40zm32 8h-16v-48h16z"/><path d="m406.835 255.715c-3.1-2.995-8.016-2.995-11.116 0l-16 16c-3.178 3.07-3.266 8.134-.196 11.312s8.134 3.266 11.312.196c.066-.064.132-.129.196-.196l16-16c3.07-3.178 2.982-8.243-.196-11.312z"/><path d="m407.031 319.715-16-16c-3.178-3.07-8.242-2.982-11.312.196-2.995 3.1-2.995 8.016 0 11.116l16 16c3.178 3.07 8.242 2.982 11.312-.196 2.995-3.1 2.995-8.016 0-11.116z"/><path d="m439.031 351.715-16-16c-3.178-3.07-8.242-2.982-11.312.196-2.995 3.1-2.995 8.016 0 11.116l16 16c3.178 3.07 8.242 2.982 11.312-.196 2.995-3.1 2.995-8.016 0-11.116z"/><path d="m471.031 383.715-16-16c-3.178-3.07-8.242-2.982-11.312.196-2.995 3.1-2.995 8.016 0 11.116l16 16c3.178 3.07 8.242 2.982 11.312-.196 2.995-3.1 2.995-8.016 0-11.116z"/><path d="m439.031 223.715c-3.124-3.123-8.188-3.123-11.312 0l-16 16c-3.178 3.07-3.266 8.134-.196 11.312s8.134 3.266 11.312.196c.066-.064.132-.129.196-.196l16-16c3.123-3.124 3.123-8.188 0-11.312z"/><path d="m470.835 191.715c-3.1-2.994-8.015-2.994-11.116 0l-16 16c-3.178 3.07-3.266 8.134-.196 11.312s8.134 3.266 11.312.196c.067-.064.132-.13.196-.196l16-16c3.069-3.178 2.981-8.243-.196-11.312z"/><path d="m425.375 285.371h-16c-4.418 0-8 3.582-8 8s3.582 8 8 8h16c4.418 0 8-3.582 8-8s-3.582-8-8-8z"/><path d="m465.375 285.371h-16c-4.418 0-8 3.582-8 8s3.582 8 8 8h16c4.418 0 8-3.582 8-8s-3.582-8-8-8z"/></svg>