<svg xmlns="http://www.w3.org/2000/svg" fill="#509ee4" viewBox="0 0 473.375 473.375"><path d="M361.375 253.371h-32a8 8 0 00-8 8h-36.688l-51.312-51.312v-76.688a8 8 0 00-2.344-5.656l-96-96-12.688-12.68c-9.372-9.373-24.568-9.375-33.941-.003l-.003.003-81.368 81.368c-9.373 9.372-9.375 24.568-.003 33.941l.003.003 12.688 12.68 96 96a8 8 0 005.656 2.344h76.688l16 16h-60.688a8 8 0 00-8 8v168c0 13.255 10.745 24 24 24h16c13.255 0 24-10.745 24-24v-112h32v32c.026 22.08 17.92 39.974 40 40a8 8 0 008-8v-64h32a8 8 0 008 8h32a8 8 0 008-8v-64a8 8 0 00-8-8zM18.343 123.035a8 8 0 01-.006-11.314l.006-.006 81.368-81.368a8 8 0 0111.314-.006l.006.006 7.024 7.024-92.68 92.688zm106.344 106.336l-88-88 92.688-92.688 88 88v73.376l-19.312 19.312zm196.688 80h-40a8 8 0 00-8 8v62.632a24.047 24.047 0 01-16-22.632v-40a8 8 0 00-8-8h-48a8 8 0 00-8 8v120a8 8 0 01-8 8h-16a8 8 0 01-8-8v-160h72a8 8 0 005.656-13.656l-26.344-26.344 12.688-12.688 50.344 50.344a8 8 0 005.656 2.344h40zm32 8h-16v-48h16zM406.835 255.715a8 8 0 00-11.116 0l-16 16a8 8 0 00-.196 11.312 8 8 0 0011.508 0l16-16a8 8 0 00-.196-11.312zM407.031 319.715l-16-16a8 8 0 00-11.312.196 8 8 0 000 11.116l16 16a8 8 0 0011.312-.196 8 8 0 000-11.116zM439.031 351.715l-16-16a8 8 0 00-11.312.196 8 8 0 000 11.116l16 16a8 8 0 0011.312-.196 8 8 0 000-11.116zM471.031 383.715l-16-16a8 8 0 00-11.312.196 8 8 0 000 11.116l16 16a8 8 0 0011.312-.196 8 8 0 000-11.116zM439.031 223.715a8 8 0 00-11.312 0l-16 16a8 8 0 00-.196 11.312 8 8 0 0011.508 0l16-16a8 8 0 000-11.312zM470.835 191.715a8.001 8.001 0 00-11.116 0l-16 16a8 8 0 00-.196 11.312 8 8 0 0011.508 0l16-16a8.001 8.001 0 00-.196-11.312zM425.375 285.371h-16a8 8 0 000 16h16a8 8 0 000-16zM465.375 285.371h-16a8 8 0 000 16h16a8 8 0 000-16z"/></svg>